<svg width="16" height="16" viewBox="0 0 16 16" fill="none" xmlns="http://www.w3.org/2000/svg">
<path fill-rule="evenodd" clip-rule="evenodd" d="M6 2C6.21025 2 6.39804 2.13153 6.4699 2.32913L10 12.0369L11.5301 7.82913C11.602 7.63153 11.7897 7.5 12 7.5H15.5C15.7761 7.5 16 7.72386 16 8C16 8.27614 15.7761 8.5 15.5 8.5H12.3502L10.4699 13.6709C10.398 13.8685 10.2103 14 10 14C9.78975 14 9.60196 13.8685 9.5301 13.6709L6 3.96309L4.4699 8.17087C4.39804 8.36847 4.21025 8.5 4 8.5H0.5C0.223858 8.5 0 8.27614 0 8C0 7.72386 0.223858 7.5 0.5 7.5H3.64979L5.5301 2.32913C5.60196 2.13153 5.78975 2 6 2Z" fill="black"/>
</svg>
