<svg width="16" height="16" viewBox="0 0 16 16" fill="none" xmlns="http://www.w3.org/2000/svg">
<path d="M7.5 1.01758C3.86736 1.27396 1 4.30212 1 8C1 9.75323 1.644 11.3553 2.70925 12.5836L7.5 7.79289V1.01758ZM8.5 1.01758V7.5H14.9824C14.7377 4.03251 11.9675 1.2623 8.5 1.01758ZM14.9824 8.5H8.20711L3.41636 13.2907C4.64474 14.356 6.24677 15 8 15C11.6979 15 14.726 12.1326 14.9824 8.5ZM0 8C0 3.58172 3.58172 0 8 0C12.4183 0 16 3.58172 16 8C16 12.4183 12.4183 16 8 16C5.791 16 3.79031 15.104 2.34315 13.6569C0.895978 12.2097 0 10.209 0 8Z" fill="black"/>
</svg>
